<svg width="12" height="14" viewBox="0 0 12 14" fill="none" xmlns="http://www.w3.org/2000/svg">
<path fill-rule="evenodd" clip-rule="evenodd" d="M4.00457 0.186385C4.12391 0.0670472 4.28577 0 4.45455 0H9.54545C10.5998 0 11.4545 0.854732 11.4545 1.90909V12.0909C11.4545 13.1453 10.5998 14 9.54545 14H1.90909C0.854732 14 0 13.1453 0 12.0909V4.45455C0 4.28577 0.0670473 4.12391 0.186385 4.00457L4.00457 0.186385ZM9.54545 1.27273H5.09091V4.45455C5.09091 4.806 4.80601 5.09091 4.45455 5.09091H1.27273V8.64551L3.05002 6.86821C3.29854 6.61971 3.70146 6.61971 3.94998 6.86821L6.36364 9.28187L7.18639 8.45912C7.43489 8.21062 7.83784 8.21062 8.08634 8.45912L10.1818 10.5546V1.90909C10.1818 1.55764 9.89692 1.27273 9.54545 1.27273ZM1.27273 12.0909V10.4454L3.5 8.21813L5.91366 10.6318C6.16216 10.8803 6.56511 10.8803 6.81361 10.6318L7.63636 9.80904L10.1353 12.308L10.1415 12.3141C10.0511 12.5555 9.81833 12.7273 9.54545 12.7273H1.90909C1.55764 12.7273 1.27273 12.4424 1.27273 12.0909ZM2.17268 3.81818H3.81818V2.17268L2.17268 3.81818ZM7.31818 7.63636C7.84535 7.63636 8.27273 7.20898 8.27273 6.68182C8.27273 6.15465 7.84535 5.72727 7.31818 5.72727C6.79102 5.72727 6.36364 6.15465 6.36364 6.68182C6.36364 7.20898 6.79102 7.63636 7.31818 7.63636Z" fill="#13C224"/>
</svg>
