<svg width="12" height="14" viewBox="0 0 12 14" fill="none" xmlns="http://www.w3.org/2000/svg">
<path d="M12.0003 3.22172V13.9999H0.306946V0H8.77864L10.2792 1.5006L12.0003 3.22172Z" fill="#B12A27"/>
<path d="M5.60812 0.937744H0V3.44703H5.60812V0.937744Z" fill="#F2F2F2"/>
<path d="M2.01157 1.76037C1.98682 1.7006 1.95384 1.647 1.90851 1.60167C1.86317 1.55633 1.8075 1.51922 1.7436 1.49448C1.67764 1.46768 1.60343 1.45532 1.52099 1.45532H0.904663V3.04659H1.21592V2.44675H1.52099C1.60343 2.44675 1.67764 2.43439 1.7436 2.4076C1.8075 2.38285 1.86314 2.34577 1.90851 2.30041C1.95387 2.25507 1.98685 2.20353 2.01157 2.14171C2.03423 2.08193 2.04662 2.01803 2.04662 1.95208C2.04659 1.88404 2.03423 1.82014 2.01157 1.76037ZM1.67557 2.1087C1.63433 2.14786 1.57664 2.16847 1.50655 2.16847H1.21592V1.73149H1.50655C1.57664 1.73149 1.63436 1.75211 1.67557 1.79332C1.71472 1.83247 1.73534 1.88607 1.73534 1.95202C1.73537 2.01595 1.71475 2.06954 1.67557 2.1087Z" fill="#B12A27"/>
<path d="M3.49977 2.07162C3.49772 2.01598 3.49564 1.96651 3.48946 1.92115C3.48328 1.87579 3.47298 1.83458 3.45854 1.79542C3.4441 1.75832 3.42556 1.72121 3.40082 1.68824C3.34517 1.60785 3.27714 1.54807 3.20088 1.51097C3.12254 1.47386 3.02979 1.45532 2.92055 1.45532H2.34753V3.04659H2.92055C3.02979 3.04659 3.12254 3.02805 3.20088 2.99095C3.27714 2.95384 3.34517 2.89407 3.40082 2.81368C3.42556 2.7807 3.4441 2.7436 3.45854 2.70649C3.47298 2.66733 3.48328 2.6261 3.48946 2.58076C3.49564 2.53543 3.49769 2.48594 3.49977 2.43029C3.50182 2.3767 3.50182 2.31692 3.50182 2.25097C3.50182 2.18502 3.50182 2.12522 3.49977 2.07162ZM3.18852 2.41175C3.18852 2.45917 3.18439 2.49627 3.18026 2.52925C3.17613 2.56017 3.16995 2.58902 3.16172 2.60964C3.15349 2.63231 3.1411 2.65292 3.12669 2.67146C3.07515 2.73742 2.99684 2.76834 2.89378 2.76834H2.65674V1.73152H2.89378C2.99684 1.73152 3.07518 1.7645 3.12669 1.83045C3.14113 1.84899 3.15349 1.86756 3.16172 1.89022C3.16995 1.91289 3.17616 1.93969 3.18026 1.97267C3.18439 2.00359 3.18852 2.04275 3.18852 2.08808C3.19057 2.13345 3.19057 2.18909 3.19057 2.25092C3.1906 2.31279 3.1906 2.36639 3.18852 2.41175Z" fill="#B12A27"/>
<path d="M4.82927 1.73152V1.45532H3.78009V3.04659H4.09134V2.40144H4.72003V2.12317H4.09134V1.73152H4.82927Z" fill="#B12A27"/>
<path d="M2.01157 1.76037C1.98682 1.7006 1.95384 1.647 1.90851 1.60167C1.86317 1.55633 1.8075 1.51922 1.7436 1.49448C1.67764 1.46768 1.60343 1.45532 1.52099 1.45532H0.904663V3.04659H1.21592V2.44675H1.52099C1.60343 2.44675 1.67764 2.43439 1.7436 2.4076C1.8075 2.38285 1.86314 2.34577 1.90851 2.30041C1.95387 2.25507 1.98685 2.20353 2.01157 2.14171C2.03423 2.08193 2.04662 2.01803 2.04662 1.95208C2.04659 1.88404 2.03423 1.82014 2.01157 1.76037ZM1.67557 2.1087C1.63433 2.14786 1.57664 2.16847 1.50655 2.16847H1.21592V1.73149H1.50655C1.57664 1.73149 1.63436 1.75211 1.67557 1.79332C1.71472 1.83247 1.73534 1.88607 1.73534 1.95202C1.73537 2.01595 1.71475 2.06954 1.67557 2.1087Z" fill="#B12A27"/>
<path opacity="0.08" d="M12.0003 3.22186V14.0001H0.306946V11.473L5.77334 6.0066L6.09696 5.68299L6.27628 5.50364L6.57517 5.20477L6.92971 4.85023L10.2792 1.50073L12.0003 3.22186Z" fill="#040000"/>
<path d="M12.0003 3.22208H8.77826V0L12.0003 3.22208Z" fill="#771B1B"/>
<path d="M10.3307 10.1351C10.2627 10.0156 10.17 9.9022 10.0545 9.79915C9.95975 9.71258 9.84843 9.63218 9.72268 9.55797C9.21561 9.25911 8.49212 9.11481 7.5089 9.11481H7.40997C7.35637 9.06535 7.30073 9.01588 7.24301 8.96434C6.86993 8.62837 6.57311 8.26352 6.34225 7.85747C6.79572 6.85775 7.01214 5.9673 6.98535 5.20876C6.98122 5.08096 6.96268 4.96141 6.9297 4.85009C6.88024 4.67077 6.7978 4.51204 6.68235 4.38219C6.6803 4.38013 6.6803 4.38013 6.67822 4.37806C6.49477 4.17194 6.23919 4.05444 5.97945 4.05444C5.71766 4.05444 5.47652 4.16781 5.3013 4.37601C5.12816 4.58212 5.03541 4.86453 5.03128 5.19637C5.0251 5.70344 5.06631 6.1837 5.15291 6.62686C5.16114 6.66192 5.16734 6.69694 5.17557 6.73197C5.26214 7.13392 5.38995 7.51523 5.55483 7.86977C5.36107 8.26347 5.16526 8.60357 5.0292 8.83443C4.92614 9.00965 4.81278 9.1931 4.69528 9.37655C4.16555 9.47138 3.71618 9.58679 3.32457 9.73109C2.79484 9.92279 2.37021 10.1701 2.06514 10.4649C1.86725 10.6545 1.73327 10.8565 1.66732 11.0668C1.59723 11.2832 1.60136 11.4996 1.67968 11.6934C1.75181 11.8727 1.88166 12.0232 2.05483 12.1262C2.09607 12.151 2.13935 12.1716 2.18469 12.1901C2.31662 12.2437 2.46089 12.2726 2.61136 12.2726C2.95972 12.2726 3.31836 12.1221 3.62135 11.8521C4.18614 11.3471 4.76946 10.535 5.11369 10.0217C5.39607 9.97841 5.7032 9.94131 6.04951 9.9042C6.45764 9.86297 6.81836 9.83825 7.1461 9.82586C7.24711 9.91656 7.34399 10.0031 7.43674 10.0856C7.95206 10.5452 8.34368 10.8771 8.69821 11.11C8.69821 11.1121 8.70026 11.1121 8.70234 11.1121C8.84251 11.2048 8.97649 11.2811 9.11048 11.3429C9.26095 11.413 9.41347 11.4501 9.57012 11.4501C9.76801 11.4501 9.95351 11.3903 10.1081 11.2811C10.2648 11.1677 10.3781 11.0049 10.4297 10.8214C10.4894 10.6009 10.4544 10.3557 10.3307 10.1351ZM5.77334 6.00646C5.74449 5.75085 5.7321 5.48496 5.73623 5.20463C5.74036 4.93874 5.83724 4.75939 5.97945 4.75939C6.08664 4.75939 6.20001 4.85627 6.25152 5.04177C6.26596 5.09742 6.27627 5.16132 6.27832 5.23345C6.28245 5.32002 6.28037 5.41072 6.27627 5.50347C6.26391 5.76526 6.21855 6.04351 6.14023 6.3424C6.09282 6.53411 6.031 6.73405 5.95473 6.94222C5.86816 6.64956 5.80631 6.3383 5.77334 6.00646ZM2.33519 11.4316C2.30013 11.3451 2.33932 11.1781 2.55369 10.972C2.88143 10.6587 3.39468 10.4113 4.10993 10.2237C3.9739 10.4092 3.83991 10.5783 3.71006 10.7329C3.51217 10.9719 3.32254 11.174 3.15145 11.3265C3.00511 11.4584 2.84433 11.5409 2.6918 11.5615C2.66501 11.5656 2.63821 11.5677 2.61141 11.5677C2.4774 11.5677 2.36816 11.5141 2.33519 11.4316ZM5.62904 9.24054L5.64348 9.21787L5.62081 9.222C5.62494 9.21169 5.63112 9.20139 5.6373 9.19315C5.72387 9.04681 5.83311 8.85923 5.9506 8.64281L5.96091 8.66547L5.98771 8.60983C6.07428 8.73351 6.16911 8.85513 6.26804 8.9726C6.31545 9.02824 6.36492 9.08184 6.41438 9.13543L6.38141 9.13748L6.41025 9.16428C6.32573 9.17046 6.23711 9.17872 6.14846 9.18695C6.09282 9.19313 6.0351 9.19726 5.97737 9.20343C5.85786 9.21579 5.74036 9.22818 5.62904 9.24054ZM9.09812 10.5267C8.85282 10.3701 8.57869 10.1495 8.24064 9.85476C8.72091 9.90423 9.09812 10.0094 9.36609 10.166C9.48358 10.234 9.5722 10.3041 9.63198 10.3721C9.73091 10.4772 9.76596 10.5721 9.74739 10.636C9.73091 10.6999 9.65877 10.7432 9.57012 10.7432C9.51858 10.7432 9.46501 10.7308 9.40934 10.704C9.31451 10.6587 9.21559 10.603 9.11048 10.535C9.10635 10.535 9.10225 10.5309 9.09812 10.5267Z" fill="#F2F2F2"/>
</svg>
