<svg width="14" height="14" viewBox="0 0 14 14" fill="none" xmlns="http://www.w3.org/2000/svg">
<path fill-rule="evenodd" clip-rule="evenodd" d="M8.68601 0.782147C9.72886 -0.260716 11.4198 -0.260716 12.4626 0.782147L13.2179 1.53745C14.2608 2.58031 14.2608 4.27113 13.2179 5.31398L4.5318 14H1.06817C0.478229 14 -1.06815e-05 13.5218 1.78931e-10 12.9318V9.46819L8.68601 0.782147ZM10.952 2.29276L11.7073 3.04807C11.9158 3.25664 11.9158 3.5948 11.7073 3.80337L10.5743 4.93633L9.06371 3.42572L10.1966 2.29276C10.4052 2.08419 10.7434 2.08419 10.952 2.29276ZM9.06371 6.44699L3.64695 11.8637H2.13633V10.3531L7.55311 4.93633L9.06371 6.44699Z" fill="#7879F1"/>
</svg>
