<svg width="16" height="15" viewBox="0 0 16 15" fill="none" xmlns="http://www.w3.org/2000/svg">
<path d="M10.1952 1.7C10.1952 1.3134 10.5086 1 10.8952 1C13.2148 1 15.0952 2.8804 15.0952 5.2V10.8C15.0952 13.1196 13.2148 15 10.8952 15H5.29521C2.97562 15 1.09521 13.1196 1.09521 10.8C1.09521 10.4134 1.40862 10.1 1.79521 10.1C2.18181 10.1 2.49521 10.4134 2.49521 10.8C2.49521 12.3464 3.74882 13.6 5.29521 13.6H10.8952C12.4416 13.6 13.6952 12.3464 13.6952 10.8V5.2C13.6952 3.6536 12.4416 2.4 10.8952 2.4C10.5086 2.4 10.1952 2.0866 10.1952 1.7Z" fill="#4D7DC4"/>
<path d="M2.28988 8.54918L1.90796 8.19225M2.28988 8.54918C2.56372 8.25616 2.93125 7.87858 3.31464 7.52921C3.7052 7.1734 4.08383 6.87338 4.38272 6.71196C4.63911 6.57349 5.12053 6.48828 5.57555 6.49397C5.73248 6.49593 5.86479 6.50864 5.96437 6.52634C5.9675 6.98496 5.96337 7.82286 5.96125 8.18392C5.9582 8.70696 6.58237 8.97863 6.96327 8.62149L10.1526 5.63149C10.3944 5.40485 10.4044 5.02439 10.1749 4.78535L6.98448 1.46197C6.61329 1.07533 5.96024 1.33807 5.96024 1.87403V3.21759C5.67541 3.1962 5.31351 3.18009 4.9308 3.1911C4.26715 3.21017 3.41184 3.31183 2.82578 3.71881C2.75281 3.76949 2.68303 3.82481 2.61675 3.8825C1.44018 4.90668 1.17621 6.5356 1.01992 7.83798L1.00593 7.95453C0.918801 8.68057 1.81302 9.05941 2.28988 8.54918ZM6.24514 7.85548L6.48666 8.11308M6.24514 7.85548C6.24524 7.85541 6.24504 7.85555 6.24514 7.85548Z" stroke="#4D7DC4" stroke-width="1.5" stroke-linecap="round"/>
</svg>
