<svg width="12" height="14" viewBox="0 0 12 14" fill="none" xmlns="http://www.w3.org/2000/svg">
<path d="M6.71006 0C7.08134 0 7.43743 0.147497 7.7 0.410053L10.7899 3.5C11.0525 3.76255 11.2 4.11865 11.2 4.48995V12.6C11.2 13.3732 10.5732 14 9.8 14H1.4C0.626801 14 0 13.3732 0 12.6V1.4C0 0.626801 0.626801 0 1.4 0H6.71006ZM5.6 1.4H1.4V12.6H9.8V5.6H6.65C6.10423 5.6 5.65569 5.18358 5.60481 4.65112L5.6 4.55V1.4ZM7.04459 7.45423C7.18032 7.09226 7.5838 6.90886 7.94577 7.04459C8.28189 7.17062 8.46403 7.52753 8.37966 7.86768L8.35541 7.94577L7.371 10.571C7.13203 11.2082 6.25946 11.2359 5.9654 10.6541L5.929 10.571L5.6 9.6936L5.271 10.571C5.03203 11.2082 4.15948 11.2359 3.86543 10.6541L3.82903 10.571L2.84457 7.94577C2.70882 7.5838 2.89223 7.18032 3.25422 7.04459C3.59034 6.91855 3.96226 7.06769 4.12236 7.37945L4.15543 7.45423L4.55 8.5064L4.879 7.62902C5.11797 6.99179 5.99054 6.96409 6.2846 7.5459L6.321 7.62902L6.65 8.5064L7.04459 7.45423ZM7 1.68995V4.2H9.51006L7 1.68995Z" fill="#5670B3"/>
</svg>
